name C:\Users\u0101727\Documents\MyRepositories\upper-imu-dc\Results\main_tracking\Case_53\kinematics.mot
datacolumns 10
datarows 42
range 0.70000000 1.11000000
endheader 
time	clav_prot	clav_elev	scapula_abduction	scapula_elevation	scapula_upward_rot	scapula_winging	plane_elv	shoulder_elv	axial_rot	
          0.70000000	        -19.06855730	         -4.47818301	         -7.46818478	         -4.55545121	         13.00451788	          5.58615642	        -26.21616159	         17.55644099	         46.17244386	
          0.71000000	        -21.58429775	         -4.99572864	        -10.58566962	         -4.51513245	         13.03628266	          5.55718361	        -26.03347521	         17.50690597	         46.03252546	
          0.72000000	        -21.56941337	         -4.93020045	        -10.55543234	         -4.47305816	         13.07109869	          5.52531364	        -25.85182246	         17.45914584	         45.89483028	
          0.73000000	        -21.55679097	         -4.86211319	        -10.52813742	         -4.42990416	         13.10874734	          5.49216276	        -25.66818997	         17.40793883	         45.75800204	
          0.74000000	        -21.59690107	         -4.78570221	        -10.59044989	         -4.38526713	         13.15332436	          5.45854112	        -25.48507889	         17.34901223	         45.62727509	
          0.75000000	        -21.68351163	         -4.69790623	        -10.73189342	         -4.33663956	         13.20557467	          5.42261030	        -25.30044775	         17.27982262	         45.50481509	
          0.76000000	        -21.76141253	         -4.59870953	        -10.86132920	         -4.27868599	         13.25746106	          5.38234348	        -25.11361084	         17.19837554	         45.39579445	
          0.77000000	        -21.77056997	         -4.48776617	        -10.88535069	         -4.20282452	         13.29067113	          5.33844735	        -24.92377963	         17.10325505	         45.30645476	
          0.78000000	        -21.56512470	         -4.37124929	        -10.56396877	         -4.09853051	         13.27949547	          5.28945325	        -24.72763206	         16.99436934	         45.24403589	
          0.79000000	        -21.31990870	         -4.22737935	        -10.21168815	         -3.95676578	         13.21388249	          5.24188593	        -24.52335333	         16.86842506	         45.21648887	
          0.80000000	        -21.02968597	         -4.05461660	         -9.80987684	         -3.78040793	         13.11048184	          5.19045223	        -24.31389526	         16.72148804	         45.23190388	
          0.81000000	        -20.74478140	         -3.84740083	         -9.43564325	         -3.57344371	         12.98971908	          5.13283468	        -24.09987408	         16.54877178	         45.29749002	
          0.82000000	        -20.48781666	         -3.60238938	         -9.11924566	         -3.33928287	         12.86947528	          5.06692029	        -23.88222844	         16.34651235	         45.42081487	
          0.83000000	        -20.26758995	         -3.31746190	         -8.86891350	         -3.08057301	         12.76405186	          4.99106903	        -23.66232880	         16.11185286	         45.60870570	
          0.84000000	        -20.08692345	         -2.99134156	         -8.68421623	         -2.79950053	         12.68466353	          4.90416803	        -23.44220587	         15.84269370	         45.86677281	
          0.85000000	        -19.94590597	         -2.62349148	         -8.56136606	         -2.49802853	         12.63996692	          4.80560669	        -23.22464226	         15.53772585	         46.19904285	
          0.86000000	        -19.84325463	         -2.21414886	         -8.49528180	         -2.17809856	         12.63648399	          4.69523811	        -23.01321333	         15.19651922	         46.60765720	
          0.87000000	        -19.77689625	         -1.76440545	         -8.48034346	         -1.84179337	         12.67891684	          4.57333280	        -22.81226728	         14.81960517	         47.09266728	
          0.88000000	        -19.74422899	         -1.27628593	         -8.51063279	         -1.49145885	         12.77038007	          4.44052373	        -22.62683723	         14.40852227	         47.65193731	
          0.89000000	        -19.74225686	         -0.75280027	         -8.57998369	         -1.12978673	         12.91258130	          4.29774085	        -22.46247223	         13.96581417	         48.28115800	
          0.90000000	        -19.76768309	         -0.19795211	         -8.68198196	         -0.75985732	         13.10597959	          4.14613266	        -22.32497719	         13.49496418	         48.97396064	
          0.91000000	        -19.81699353	          0.38331150	         -8.80997040	         -0.38513669	         13.34993349	          3.98697727	        -22.22006793	         13.00026433	         49.72211206	
          0.92000000	        -19.88655242	          0.98520720	         -8.95709455	         -0.00943496	         13.64285409	          3.82158859	        -22.15297196	         12.48663209	         50.51577810	
          0.93000000	        -19.97271736	          1.60128199	         -9.11640066	          0.36317157	         13.98237819	          3.65122146	        -22.12800880	         11.95938229	         51.34383898	
          0.94000000	        -20.07196569	          2.22462242	         -9.28098370	          0.72844685	         14.36554394	          3.47698910	        -22.14819519	         11.42397901	         52.19424869	
          0.95000000	        -20.18103349	          2.84807879	         -9.44419011	          1.08211154	         14.78896052	          3.29980368	        -22.21492151	         10.88578579	         53.05444408	
          0.96000000	        -20.29706225	          3.46448007	         -9.59986556	          1.41995406	         15.24896413	          3.12034429	        -22.32772242	         10.34980578	         53.91178586	
          0.97000000	        -20.41777585	          4.06681029	         -9.74266775	          1.73790884	         15.74177623	          2.93904793	        -22.48415471	          9.82045041	         54.75399717	
          0.98000000	        -20.54163150	          4.64837116	         -9.86839552	          2.03214389	         16.26359185	          2.75613372	        -22.67980166	          9.30139837	         55.56953689	
          0.99000000	        -20.66793168	          5.20290691	         -9.97431302	          2.29914573	         16.81057752	          2.57166514	        -22.90836290	          8.79552834	         56.34784150	
          1.00000000	        -20.79695107	          5.72470837	        -10.05949591	          2.53578048	         17.37889382	          2.38561213	        -23.16181409	          8.30495112	         57.07945688	
          1.01000000	        -20.93004153	          6.20869676	        -10.12516426	          2.73934942	         17.96468261	          2.19792331	        -23.43064371	          7.83108948	         57.75607461	
          1.02000000	        -21.06971608	          6.65051860	        -10.17500512	          2.90765988	         18.56402750	          2.00860048	        -23.70413975	          7.37479853	         58.37048471	
          1.03000000	        -21.21976357	          7.04668860	        -10.21558184	          3.03913268	         19.17289725	          1.81776939	        -23.97072668	          6.93652936	         58.91649175	
          1.04000000	        -21.38534385	          7.39492686	        -10.25679650	          3.13305577	         19.78707810	          1.62573738	        -24.21837081	          6.51652453	         59.38883421	
          1.05000000	        -21.57347263	          7.69482304	        -10.31322645	          3.19006554	         20.40206211	          1.43305046	        -24.43501566	          6.11517420	         59.78315083	
          1.06000000	        -21.78966610	          7.94980088	        -10.39906986	          3.21380093	         21.01299557	          1.24046436	        -24.60917341	          5.73312833	         60.09595171	
          1.07000000	        -21.63581713	          8.14299030	         -9.78869824	          3.21648842	         21.61486604	          1.04623466	        -24.73041689	          5.36769094	         60.32558705	
          1.08000000	        -22.23963225	          8.37861137	        -10.57506334	          3.21039317	         22.20485910	          0.85996310	        -24.78845940	          5.01819141	         60.46845800	
          1.09000000	        -21.56624509	          8.52197141	         -9.00938668	          3.21542852	         22.78253989	          0.67437978	        -24.77730978	          4.67621576	         60.52699729	
          1.10000000	        -21.67873152	          8.74043981	         -8.91090124	          3.23497601	         23.34562899	          0.49910315	        -24.68966249	          4.34663749	         60.49865772	
          1.11000000	        -22.35300510	          9.01973111	         -9.87031331	          3.27108618	         23.89316778	          0.32761412	        -24.52351026	          4.02884257	         60.38716803	
